<svg id="svg" version="1.1" xmlns="http://www.w3.org/2000/svg" xmlns:xlink="http://www.w3.org/1999/xlink" width="400"
     height="400" viewBox="0, 0, 400,400">
  <g id="svgg">
    <path id="path0"
          d="M185.063 67.148 C 121.997 73.732,77.238 122.574,77.238 184.810 C 77.238 283.887,190.823 338.492,268.926 276.962 C 278.808 269.177,295.865 249.439,295.865 245.789 C 295.865 245.415,296.028 245.209,296.228 245.332 C 296.630 245.581,298.040 242.524,297.829 241.861 C 297.756 241.632,297.887 241.561,298.119 241.705 C 298.715 242.073,302.375 234.499,301.955 233.767 C 301.765 233.436,301.797 233.334,302.026 233.542 C 302.555 234.021,303.858 231.124,306.324 223.989 C 330.592 153.781,285.894 79.388,212.658 68.099 C 207.554 67.312,189.462 66.689,185.063 67.148 M206.582 72.657 C 299.979 82.871,341.042 195.533,275.949 262.975 C 209.569 331.752,93.198 291.678,82.784 196.456 C 75.082 126.029,136.156 64.955,206.582 72.657 M130.326 99.957 C 129.496 102.121,130.321 103.544,132.405 103.544 C 134.602 103.544,135.535 101.636,134.152 99.969 C 133.373 99.032,130.685 99.023,130.326 99.957 M144.593 100.036 C 142.973 101.656,144.110 103.797,146.590 103.797 C 148.011 103.797,148.392 103.571,148.641 102.579 C 149.318 99.882,146.510 98.119,144.593 100.036 M158.582 99.848 C 157.056 101.374,158.104 103.797,160.290 103.797 C 162.726 103.797,163.846 101.640,162.242 100.036 C 161.298 99.092,159.434 98.996,158.582 99.848 M228.456 99.848 C 226.535 101.769,228.737 104.984,231.203 103.860 C 233.406 102.857,232.563 99.241,230.127 99.241 C 229.542 99.241,228.790 99.514,228.456 99.848 M242.658 99.576 C 241.557 100.020,241.886 103.181,243.102 103.832 C 244.753 104.715,246.582 103.691,246.582 101.884 C 246.582 99.646,244.915 98.665,242.658 99.576 M256.304 99.848 C 254.872 101.280,256.178 104.304,258.228 104.304 C 260.278 104.304,261.584 101.280,260.152 99.848 C 259.818 99.514,258.952 99.241,258.228 99.241 C 257.504 99.241,256.638 99.514,256.304 99.848 M137.749 106.549 C 137.417 106.949,137.219 108.031,137.307 108.954 C 137.586 111.859,142.278 111.508,142.278 108.582 C 142.278 106.258,139.154 104.856,137.749 106.549 M151.420 106.549 C 150.021 108.235,150.972 110.619,153.113 110.795 C 155.282 110.972,155.929 110.408,155.942 108.329 C 155.956 106.009,152.875 104.796,151.420 106.549 M166.103 106.549 C 165.772 106.949,165.573 108.031,165.662 108.954 C 165.954 112.004,170.633 111.382,170.633 108.294 C 170.633 106.223,167.406 104.980,166.103 106.549 M220.787 106.549 C 220.455 106.949,220.257 108.031,220.345 108.954 C 220.637 111.998,225.316 111.471,225.316 108.394 C 225.316 106.013,222.264 104.770,220.787 106.549 M234.923 106.862 C 233.470 109.575,236.176 112.355,238.676 110.718 C 240.070 109.804,240.350 108.435,239.476 106.802 C 238.731 105.411,235.678 105.451,234.923 106.862 M249.215 106.430 C 248.081 107.565,248.470 110.339,249.853 110.969 C 252.500 112.175,254.932 108.675,252.875 106.618 C 251.931 105.674,250.067 105.578,249.215 106.430 M263.671 106.370 C 262.653 106.963,262.482 109.368,263.392 110.278 C 264.937 111.823,267.342 110.600,267.342 108.271 C 267.342 106.275,265.485 105.313,263.671 106.370 M123.550 107.082 C 122.787 108.001,123.277 110.309,124.320 110.709 C 126.592 111.581,128.709 109.423,127.605 107.361 C 126.945 106.128,124.482 105.959,123.550 107.082 M130.366 113.939 C 128.771 115.701,129.867 117.722,132.417 117.722 C 134.343 117.722,134.438 117.646,134.597 115.972 C 134.866 113.143,132.232 111.878,130.366 113.939 M143.966 114.236 C 143.189 115.422,143.176 115.699,143.844 116.894 C 145.207 119.334,149.367 118.538,149.367 115.838 C 149.367 112.759,145.655 111.658,143.966 114.236 M157.992 113.891 C 156.783 116.151,158.092 118.481,160.572 118.481 C 162.249 118.481,163.038 117.591,163.038 115.696 C 163.038 112.946,159.228 111.583,157.992 113.891 M227.949 113.519 C 226.187 115.281,227.592 118.481,230.127 118.481 C 232.114 118.481,232.911 117.684,232.911 115.696 C 232.911 113.709,232.114 112.911,230.127 112.911 C 229.263 112.911,228.284 113.185,227.949 113.519 M242.127 113.519 C 240.440 115.205,241.753 118.481,244.116 118.481 C 245.879 118.481,247.089 117.272,247.089 115.508 C 247.089 113.704,246.239 112.911,244.304 112.911 C 243.441 112.911,242.461 113.185,242.127 113.519 M256.582 113.458 C 255.653 113.999,255.400 116.218,256.135 117.377 C 257.123 118.934,260.490 117.891,260.673 115.972 C 260.916 113.410,258.847 112.139,256.582 113.458 M137.834 120.282 C 135.325 122.039,137.422 126.206,140.355 125.290 C 141.860 124.820,142.261 124.166,142.271 122.170 C 142.282 119.701,140.032 118.743,137.834 120.282 M151.218 120.420 C 148.553 123.364,152.637 127.363,155.443 124.557 C 156.660 123.340,156.728 122.134,155.667 120.619 C 154.694 119.230,152.388 119.126,151.218 120.420 M165.901 120.420 C 164.705 121.741,164.843 123.839,166.189 124.781 C 168.504 126.403,170.633 125.195,170.633 122.260 C 170.633 119.639,167.656 118.481,165.901 120.420 M220.585 120.420 C 219.478 121.642,219.520 123.688,220.673 124.732 C 222.473 126.361,224.984 125.453,225.586 122.955 C 226.233 120.266,222.457 118.351,220.585 120.420 M235.316 120.041 C 233.831 120.906,234.107 124.431,235.717 125.165 C 237.914 126.166,239.715 125.178,239.906 122.867 C 240.155 119.853,237.959 118.501,235.316 120.041 M248.939 120.420 C 247.269 122.266,248.483 125.570,250.833 125.570 C 252.752 125.570,253.671 124.586,253.671 122.532 C 253.671 119.648,250.798 118.365,248.939 120.420 M123.646 120.608 C 122.066 122.187,123.427 125.063,125.753 125.063 C 126.802 125.063,128.101 123.662,128.101 122.532 C 128.101 120.481,125.078 119.176,123.646 120.608 M263.392 120.608 C 261.901 122.099,263.013 125.063,265.063 125.063 C 266.496 125.063,267.342 124.124,267.342 122.532 C 267.342 120.939,266.496 120.000,265.063 120.000 C 264.478 120.000,263.727 120.273,263.392 120.608 M228.514 126.069 C 226.253 127.002,225.597 130.407,227.342 132.152 C 228.794 133.604,232.084 133.540,233.136 132.039 C 235.422 128.775,232.162 124.563,228.514 126.069 M143.834 127.410 C 142.456 129.162,142.509 130.403,144.028 131.922 C 146.212 134.106,149.873 132.642,149.873 129.584 C 149.873 126.303,145.845 124.853,143.834 127.410 M157.758 126.872 C 156.649 127.980,156.728 131.277,157.888 132.327 C 160.287 134.498,164.051 132.791,164.051 129.532 C 164.051 126.476,159.906 124.724,157.758 126.872 M241.527 127.446 C 240.266 129.050,240.488 130.912,242.103 132.278 C 244.441 134.257,247.595 132.602,247.595 129.396 C 247.595 126.139,243.572 124.846,241.527 127.446 M130.506 127.129 C 129.005 128.003,129.298 131.520,130.933 132.266 C 132.828 133.129,134.883 131.907,135.091 129.795 C 135.349 127.166,132.894 125.739,130.506 127.129 M256.028 127.508 C 254.901 128.753,254.971 130.414,256.203 131.646 C 258.082 133.525,261.266 132.283,261.266 129.670 C 261.266 126.954,257.817 125.531,256.028 127.508 M150.711 134.091 C 147.677 137.444,152.469 142.261,155.663 139.067 C 157.142 137.587,157.320 135.926,156.174 134.290 C 155.160 132.842,151.947 132.725,150.711 134.091 M165.395 134.091 C 163.299 136.407,164.858 139.747,168.036 139.747 C 170.417 139.747,171.139 139.024,171.139 136.644 C 171.139 133.428,167.470 131.797,165.395 134.091 M220.078 134.091 C 218.204 136.161,219.349 139.506,222.118 140.050 C 225.320 140.678,227.611 136.472,225.316 134.177 C 224.024 132.884,221.212 132.838,220.078 134.091 M234.391 133.971 C 233.281 135.309,233.555 138.223,234.892 139.306 C 237.375 141.317,240.709 139.748,240.709 136.568 C 240.709 134.059,239.791 133.165,237.215 133.165 C 235.862 133.165,234.812 133.464,234.391 133.971 M248.838 134.407 C 247.791 135.454,247.570 136.046,247.827 137.114 C 248.736 140.886,254.177 140.479,254.177 136.639 C 254.177 133.591,250.987 132.258,248.838 134.407 M123.320 134.796 C 121.782 136.992,122.888 139.241,125.505 139.241 C 127.309 139.241,128.101 138.391,128.101 136.456 C 128.101 133.606,124.925 132.504,123.320 134.796 M137.316 134.278 C 136.134 135.461,136.566 138.691,137.995 139.342 C 139.770 140.150,141.879 139.335,142.487 137.606 C 143.552 134.578,139.576 132.019,137.316 134.278 M263.165 134.218 C 262.133 134.818,261.952 137.698,262.886 138.633 C 264.681 140.427,267.848 138.984,267.848 136.372 C 267.848 134.015,265.426 132.901,263.165 134.218 M143.797 140.759 C 140.594 143.963,144.818 149.112,148.610 146.627 C 150.356 145.483,150.441 141.721,148.748 140.535 C 147.197 139.449,145.009 139.548,143.797 140.759 M157.468 140.759 C 155.131 143.097,157.063 147.342,160.465 147.342 C 162.649 147.342,163.883 146.279,164.337 144.009 C 165.036 140.515,160.065 138.163,157.468 140.759 M227.167 140.673 C 223.975 144.200,228.866 149.308,232.799 146.554 C 234.269 145.524,234.392 141.846,232.998 140.585 C 231.720 139.428,228.246 139.481,227.167 140.673 M241.840 140.796 C 238.949 143.070,241.148 147.846,244.754 147.125 C 246.995 146.677,247.595 145.914,247.595 143.511 C 247.595 140.007,244.625 138.606,241.840 140.796 M129.952 141.179 C 128.723 142.537,128.874 145.091,130.239 146.047 C 132.574 147.683,135.696 146.250,135.696 143.544 C 135.696 140.772,131.780 139.159,129.952 141.179 M256.076 140.800 C 254.934 141.465,254.874 144.928,255.986 146.040 C 258.078 148.132,261.266 146.461,261.266 143.273 C 261.266 140.564,258.634 139.310,256.076 140.800 M150.416 148.170 C 147.506 151.869,151.955 156.361,155.837 153.642 C 157.307 152.612,157.430 148.935,156.036 147.673 C 154.555 146.333,151.660 146.589,150.416 148.170 M219.977 148.078 C 219.202 148.854,218.734 149.901,218.734 150.863 C 218.734 152.345,218.649 152.405,216.530 152.405 C 213.738 152.405,211.646 154.130,211.646 156.432 C 211.646 157.950,211.604 157.975,209.063 157.975 C 205.543 157.975,203.038 160.287,203.038 163.536 C 203.038 166.369,201.876 166.001,201.474 163.041 C 200.555 156.284,189.367 157.034,189.367 163.852 C 189.367 166.643,187.690 166.014,187.297 163.075 C 186.869 159.876,185.106 158.481,181.491 158.481 L 178.734 158.481 178.734 156.685 C 178.734 153.469,173.480 150.773,171.355 152.898 C 171.035 153.218,170.927 152.707,171.048 151.443 C 171.385 147.905,167.063 145.849,164.557 148.354 C 162.082 150.829,163.766 154.937,167.255 154.937 C 169.080 154.937,169.114 154.973,169.114 156.921 C 169.114 158.012,169.245 159.246,169.405 159.662 C 169.643 160.282,169.328 160.371,167.671 160.149 C 164.903 159.777,163.038 161.543,163.038 164.534 C 163.038 167.209,164.387 168.608,166.966 168.608 L 168.868 168.608 168.691 170.837 C 168.517 173.024,168.475 173.071,166.535 173.256 L 164.557 173.444 164.557 171.279 C 164.557 167.427,160.455 165.581,157.398 168.057 C 154.384 170.497,156.450 175.694,160.436 175.698 L 162.278 175.699 162.278 178.388 C 162.278 180.907,162.206 181.063,161.135 180.859 C 158.564 180.367,155.949 182.615,155.949 185.316 C 155.949 188.018,158.564 190.266,161.135 189.774 C 162.212 189.569,162.278 189.721,162.278 192.383 L 162.278 195.210 160.754 195.032 C 156.516 194.537,154.542 200.973,158.321 202.962 C 161.297 204.529,164.557 202.697,164.557 199.457 C 164.557 197.522,164.605 197.468,166.329 197.468 C 168.059 197.468,168.101 197.517,168.101 199.494 C 168.101 201.377,168.001 201.519,166.677 201.519 C 164.571 201.519,162.532 203.855,162.532 206.269 C 162.532 208.884,164.741 211.139,167.303 211.139 C 169.107 211.139,169.114 211.147,169.114 213.381 C 169.114 216.253,170.741 217.722,173.924 217.722 C 176.851 217.722,178.734 216.220,178.734 213.887 L 178.734 212.152 181.947 212.152 C 185.665 212.152,186.800 211.328,187.297 208.268 C 187.702 205.776,188.861 205.405,188.861 207.767 C 188.861 211.241,190.788 212.658,195.511 212.658 C 200.478 212.658,202.025 211.571,202.025 208.082 C 202.025 205.461,203.219 205.564,203.445 208.204 C 203.669 210.833,205.232 212.057,208.608 212.248 C 211.286 212.399,211.399 212.463,211.560 213.924 C 211.840 216.470,213.446 217.722,216.431 217.722 L 219.014 217.722 218.824 219.719 C 218.441 223.734,223.227 225.933,226.099 223.061 C 228.989 220.171,226.920 215.388,222.945 215.769 L 221.013 215.954 221.188 213.546 L 221.364 211.139 223.492 211.139 C 224.662 211.139,225.951 210.854,226.354 210.506 C 226.971 209.975,226.987 209.991,226.456 210.608 C 225.786 211.385,225.610 214.046,226.137 215.420 C 227.061 217.829,232.118 218.265,233.656 216.070 C 236.184 212.461,232.733 207.545,228.739 209.064 C 227.467 209.548,227.462 209.539,228.003 207.775 C 228.386 206.526,228.390 205.581,228.015 204.589 L 227.483 203.178 229.652 203.423 C 231.490 203.630,232.021 203.468,233.126 202.363 C 235.999 199.490,233.917 194.639,229.972 195.013 L 228.101 195.190 228.101 192.403 L 228.101 189.617 229.879 189.787 C 234.060 190.186,236.393 184.402,233.096 181.809 C 229.802 179.218,225.574 181.448,225.905 185.603 C 226.042 187.334,225.926 187.802,225.406 187.602 C 225.033 187.459,224.176 187.342,223.503 187.342 C 222.389 187.342,222.278 187.136,222.278 185.063 C 222.278 182.820,222.304 182.785,223.962 182.785 C 226.349 182.785,227.848 181.054,227.848 178.299 C 227.848 175.501,226.155 173.671,223.567 173.671 L 221.772 173.671 221.772 171.139 L 221.772 168.608 223.761 168.608 C 228.098 168.608,229.440 162.362,225.490 160.562 C 222.335 159.124,218.394 161.503,218.845 164.573 C 219.051 165.982,218.960 166.076,217.381 166.076 C 215.793 166.076,215.696 165.974,215.696 164.304 C 215.696 162.754,215.854 162.532,216.954 162.532 C 219.112 162.532,221.461 159.966,221.492 157.574 C 221.517 155.646,221.598 155.538,222.819 155.781 C 226.539 156.520,229.057 150.284,226.008 147.885 C 224.156 146.428,221.543 146.512,219.977 148.078 M234.430 147.848 C 233.803 148.475,233.418 149.536,233.418 150.633 C 233.418 151.730,233.803 152.791,234.430 153.418 C 235.057 154.045,236.118 154.430,237.215 154.430 C 238.312 154.430,239.373 154.045,240.000 153.418 C 240.627 152.791,241.013 151.730,241.013 150.633 C 241.013 149.536,240.627 148.475,240.000 147.848 C 239.373 147.221,238.312 146.835,237.215 146.835 C 236.118 146.835,235.057 147.221,234.430 147.848 M136.998 148.137 C 134.027 151.108,138.600 155.732,142.030 153.224 C 143.163 152.395,143.334 149.373,142.318 148.149 C 141.446 147.098,138.045 147.091,136.998 148.137 M248.119 148.321 C 247.344 149.769,247.483 152.220,248.391 153.128 C 250.448 155.186,254.684 153.506,254.684 150.633 C 254.684 147.633,249.470 145.797,248.119 148.321 M263.404 148.130 C 261.037 149.787,262.177 153.418,265.063 153.418 C 267.069 153.418,267.848 152.619,267.848 150.560 C 267.848 148.976,266.434 147.342,265.063 147.342 C 264.769 147.342,264.023 147.696,263.404 148.130 M122.937 149.134 C 121.956 151.286,122.927 153.132,125.136 153.318 C 128.035 153.561,129.457 151.395,128.083 148.827 C 127.238 147.247,123.700 147.458,122.937 149.134 M143.968 154.165 C 141.640 155.796,142.125 159.901,144.776 160.998 C 148.923 162.716,152.294 157.818,149.137 154.661 C 147.721 153.244,145.576 153.039,143.968 154.165 M157.468 154.430 C 154.904 156.994,156.787 161.519,160.418 161.519 C 164.167 161.519,166.067 157.038,163.385 154.519 C 161.854 153.080,158.863 153.035,157.468 154.430 M227.283 154.376 C 224.448 156.672,226.378 161.519,230.127 161.519 C 232.677 161.519,234.154 160.033,234.154 157.468 C 234.154 154.904,232.677 153.418,230.127 153.418 C 229.214 153.418,227.934 153.849,227.283 154.376 M241.519 154.430 C 240.496 155.454,240.124 158.645,240.894 159.798 C 243.007 162.962,248.101 161.315,248.101 157.468 C 248.101 154.026,243.874 152.075,241.519 154.430 M130.239 154.712 C 129.405 155.297,129.114 156.009,129.114 157.468 C 129.114 160.674,132.480 162.204,134.684 160.000 C 136.872 157.812,135.414 153.924,132.405 153.924 C 131.833 153.924,130.858 154.279,130.239 154.712 M255.696 154.937 C 255.134 155.499,254.684 156.624,254.684 157.468 C 254.684 158.312,255.134 159.437,255.696 160.000 C 257.888 162.191,261.772 160.573,261.772 157.468 C 261.772 155.519,260.177 153.924,258.228 153.924 C 257.384 153.924,256.259 154.374,255.696 154.937 M137.844 161.019 C 135.580 161.950,135.113 165.421,136.999 167.306 C 138.235 168.542,141.545 168.343,142.503 166.976 C 144.852 163.622,141.606 159.471,137.844 161.019 M150.380 161.519 C 148.831 163.067,148.999 166.219,150.701 167.558 C 154.699 170.703,159.563 165.838,156.419 161.840 C 155.080 160.138,151.928 159.971,150.380 161.519 M234.141 161.559 C 232.729 163.120,232.854 166.420,234.371 167.649 C 237.201 169.940,241.243 168.177,241.243 164.651 C 241.243 161.833,239.954 160.506,237.215 160.506 C 235.710 160.506,234.817 160.812,234.141 161.559 M248.331 161.749 C 245.731 164.350,247.343 168.101,251.061 168.101 C 253.487 168.101,254.684 166.888,254.684 164.427 C 254.684 160.976,250.759 159.321,248.331 161.749 M123.657 161.801 C 121.102 163.590,122.424 167.595,125.570 167.595 C 127.887 167.595,128.608 166.857,128.608 164.484 C 128.608 162.528,127.282 161.013,125.570 161.013 C 125.137 161.013,124.276 161.367,123.657 161.801 M262.897 161.801 C 261.545 162.748,261.358 165.589,262.568 166.799 C 264.552 168.783,268.354 167.286,268.354 164.521 C 268.354 161.615,265.321 160.103,262.897 161.801 M174.304 162.525 C 174.978 162.530,175.190 162.956,175.190 164.304 C 175.190 167.262,171.840 167.001,171.556 164.020 C 171.378 162.159,171.457 161.991,172.389 162.241 C 172.955 162.393,173.816 162.521,174.304 162.525 M144.463 167.579 C 140.579 169.211,141.982 175.420,146.235 175.420 C 149.053 175.420,150.380 174.131,150.380 171.392 C 150.380 168.216,147.446 166.326,144.463 167.579 M226.924 168.260 C 224.275 171.080,226.351 175.696,230.268 175.696 C 234.099 175.696,236.046 170.809,233.259 168.190 C 231.615 166.645,228.408 166.681,226.924 168.260 M242.185 167.598 C 238.564 169.058,239.563 174.867,243.544 175.504 C 246.262 175.939,248.101 174.279,248.101 171.392 C 248.101 168.006,245.428 166.292,242.185 167.598 M255.991 168.666 C 254.894 169.528,254.659 170.085,254.783 171.527 C 255.185 176.209,261.787 176.167,261.764 171.483 C 261.748 168.032,258.691 166.541,255.991 168.666 M129.396 169.227 C 127.599 171.792,129.055 174.684,132.144 174.684 C 135.268 174.684,136.726 171.984,135.172 169.081 C 134.381 167.602,130.465 167.701,129.396 169.227 M182.278 171.392 C 182.278 171.865,181.800 172.152,181.013 172.152 C 180.225 172.152,179.747 171.865,179.747 171.392 C 179.747 170.920,180.225 170.633,181.013 170.633 C 181.800 170.633,182.278 170.920,182.278 171.392 M196.456 171.392 C 196.456 171.814,196.006 172.152,195.443 172.152 C 194.880 172.152,194.430 171.814,194.430 171.392 C 194.430 170.970,194.880 170.633,195.443 170.633 C 196.006 170.633,196.456 170.970,196.456 171.392 M150.475 175.210 C 149.033 176.554,148.926 180.203,150.293 181.441 C 151.625 182.646,155.176 182.545,156.456 181.266 C 160.103 177.618,154.251 171.692,150.475 175.210 M234.154 175.420 C 230.992 178.582,234.412 183.705,238.733 182.279 C 241.585 181.338,242.432 177.575,240.276 175.420 C 238.585 173.729,235.845 173.729,234.154 175.420 M136.709 175.696 C 133.368 179.037,138.725 184.468,142.183 181.246 C 143.602 179.924,143.704 176.733,142.365 175.522 C 141.066 174.346,137.964 174.441,136.709 175.696 M248.101 175.696 C 245.829 177.968,247.804 182.278,251.116 182.278 C 254.260 182.278,256.080 177.623,253.758 175.522 C 252.458 174.346,249.356 174.441,248.101 175.696 M263.291 175.323 C 261.666 176.157,261.251 179.344,262.577 180.809 C 264.680 183.134,268.354 181.426,268.354 178.123 C 268.354 175.425,265.823 174.025,263.291 175.323 M122.814 176.315 C 121.105 178.754,122.629 181.772,125.570 181.772 C 128.510 181.772,130.034 178.754,128.326 176.315 C 127.741 175.481,127.029 175.190,125.570 175.190 C 124.110 175.190,123.398 175.481,122.814 176.315 M174.684 178.228 C 174.684 179.511,174.487 179.747,173.418 179.747 C 172.349 179.747,172.152 179.511,172.152 178.228 C 172.152 176.945,172.349 176.709,173.418 176.709 C 174.487 176.709,174.684 176.945,174.684 178.228 M218.734 178.228 C 218.734 179.578,218.565 179.747,217.215 179.747 C 215.865 179.747,215.696 179.578,215.696 178.228 C 215.696 176.878,215.865 176.709,217.215 176.709 C 218.565 176.709,218.734 176.878,218.734 178.228 M188.861 178.481 C 188.861 179.177,188.633 179.747,188.354 179.747 C 188.076 179.747,187.848 179.177,187.848 178.481 C 187.848 177.785,188.076 177.215,188.354 177.215 C 188.633 177.215,188.861 177.785,188.861 178.481 M203.038 178.228 C 203.038 178.785,202.810 179.241,202.532 179.241 C 202.253 179.241,202.025 178.785,202.025 178.228 C 202.025 177.671,202.253 177.215,202.532 177.215 C 202.810 177.215,203.038 177.671,203.038 178.228 M144.423 181.791 C 142.312 182.639,141.739 186.856,143.532 188.344 C 145.085 189.633,147.704 189.557,149.077 188.184 C 152.424 184.837,148.899 179.993,144.423 181.791 M242.532 181.617 C 240.343 182.399,239.719 186.554,241.519 188.354 C 243.874 190.709,248.101 188.758,248.101 185.316 C 248.101 182.370,245.415 180.587,242.532 181.617 M129.620 182.785 C 127.337 185.068,129.053 188.861,132.369 188.861 C 134.641 188.861,135.696 187.737,135.696 185.316 C 135.696 181.938,132.005 180.400,129.620 182.785 M255.522 182.698 C 254.389 183.949,254.439 186.963,255.609 188.023 C 258.009 190.194,261.772 188.487,261.772 185.228 C 261.772 182.086,257.603 180.398,255.522 182.698 M168.193 185.267 C 167.886 188.482,164.785 188.655,164.800 185.456 C 164.810 183.322,164.833 183.294,166.596 183.293 C 168.366 183.291,168.380 183.308,168.193 185.267 M182.278 185.316 C 182.278 185.595,181.823 185.823,181.266 185.823 C 180.709 185.823,180.253 185.595,180.253 185.316 C 180.253 185.038,180.709 184.810,181.266 184.810 C 181.823 184.810,182.278 185.038,182.278 185.316 M196.203 185.316 C 196.030 185.595,195.561 185.823,195.160 185.823 C 194.759 185.823,194.430 185.595,194.430 185.316 C 194.430 185.038,194.900 184.810,195.473 184.810 C 196.046 184.810,196.375 185.038,196.203 185.316 M210.633 185.316 C 210.633 185.595,210.291 185.823,209.873 185.823 C 209.456 185.823,209.114 185.595,209.114 185.316 C 209.114 185.038,209.456 184.810,209.873 184.810 C 210.291 184.810,210.633 185.038,210.633 185.316 M151.049 188.450 C 148.628 189.620,148.306 194.136,150.533 195.696 C 153.671 197.894,157.468 195.974,157.468 192.189 C 157.468 188.668,154.352 186.853,151.049 188.450 M234.154 189.091 C 231.292 191.953,233.207 196.456,237.286 196.456 C 239.938 196.456,241.519 194.875,241.519 192.223 C 241.519 188.288,236.915 186.330,234.154 189.091 M136.797 189.526 C 134.339 192.143,135.908 195.949,139.444 195.949 C 142.200 195.949,143.291 194.833,143.291 192.014 C 143.291 188.517,139.213 186.955,136.797 189.526 M248.101 189.367 C 245.640 191.828,247.415 196.152,250.886 196.152 C 253.379 196.152,254.684 194.761,254.684 192.102 C 254.684 188.623,250.559 186.909,248.101 189.367 M122.814 189.986 C 120.958 192.636,122.446 195.443,125.707 195.443 C 127.737 195.443,129.114 194.067,129.114 192.039 C 129.114 189.158,124.456 187.640,122.814 189.986 M262.568 189.656 C 261.521 190.703,261.528 194.104,262.579 194.976 C 264.891 196.895,268.354 195.338,268.354 192.379 C 268.354 189.997,267.292 188.861,265.063 188.861 C 264.128 188.861,263.005 189.219,262.568 189.656 M174.684 192.405 C 174.684 193.148,174.346 193.418,173.418 193.418 C 172.489 193.418,172.152 193.148,172.152 192.405 C 172.152 191.662,172.489 191.392,173.418 191.392 C 174.346 191.392,174.684 191.662,174.684 192.405 M218.228 192.405 C 218.228 193.070,217.890 193.418,217.245 193.418 C 216.132 193.418,215.482 192.655,215.949 191.899 C 216.533 190.954,218.228 191.331,218.228 192.405 M143.797 196.456 C 142.345 197.908,142.409 201.198,143.910 202.250 C 146.725 204.221,149.873 202.632,149.873 199.241 C 149.873 195.751,146.190 194.063,143.797 196.456 M241.519 196.456 C 239.133 198.841,240.885 203.038,244.267 203.038 C 247.634 203.038,249.250 199.077,246.858 196.686 C 245.324 195.152,242.926 195.048,241.519 196.456 M129.396 197.075 C 126.976 200.530,131.637 204.764,134.889 202.065 C 135.940 201.193,135.947 197.792,134.901 196.745 C 133.664 195.509,130.354 195.707,129.396 197.075 M255.486 196.915 C 253.416 199.202,255.948 203.593,258.908 202.850 C 261.696 202.150,262.835 198.588,260.846 196.787 C 259.572 195.635,256.580 195.706,255.486 196.915 M226.076 199.370 L 226.077 201.775 224.178 201.594 C 221.227 201.312,221.227 197.640,224.177 197.331 C 225.222 197.222,226.076 197.095,226.076 197.049 C 226.076 197.003,226.076 198.047,226.076 199.370 M181.772 199.494 C 181.772 199.772,181.430 200.000,181.013 200.000 C 180.595 200.000,180.253 199.772,180.253 199.494 C 180.253 199.215,180.595 198.987,181.013 198.987 C 181.430 198.987,181.772 199.215,181.772 199.494 M150.701 203.075 C 148.954 204.449,148.800 207.937,150.420 209.404 C 151.980 210.816,155.281 210.690,156.510 209.173 C 159.747 205.175,154.729 199.906,150.701 203.075 M235.310 202.376 C 232.861 203.014,232.311 207.073,234.391 209.153 C 237.562 212.324,242.253 209.559,241.273 205.097 C 240.722 202.586,238.460 201.554,235.310 202.376 M137.328 203.320 C 136.017 204.238,135.719 208.083,136.884 209.049 C 138.446 210.345,140.633 210.299,141.992 208.940 C 145.334 205.598,141.195 200.611,137.328 203.320 M248.562 203.479 C 246.061 205.505,247.668 210.127,250.874 210.127 C 252.818 210.127,254.684 208.259,254.684 206.312 C 254.684 203.054,251.122 201.406,248.562 203.479 M123.334 204.003 C 122.779 204.616,122.520 205.580,122.623 206.646 C 123.005 210.595,128.175 210.456,128.509 206.488 C 128.760 203.502,125.293 201.838,123.334 204.003 M262.785 204.051 C 260.549 206.286,262.434 210.014,265.496 209.413 C 269.459 208.635,269.079 203.038,265.063 203.038 C 264.367 203.038,263.342 203.494,262.785 204.051 M175.096 206.709 C 175.227 207.397,174.916 207.595,173.708 207.595 C 172.473 207.595,172.152 207.379,172.152 206.549 C 172.152 205.191,174.836 205.337,175.096 206.709 M218.734 206.582 C 218.734 207.370,218.397 207.595,217.215 207.595 C 215.787 207.595,215.194 206.747,216.034 205.907 C 216.835 205.105,218.734 205.580,218.734 206.582 M156.999 210.448 C 153.639 214.720,159.565 220.057,163.607 216.399 C 164.912 215.218,164.927 211.125,163.631 209.952 C 162.075 208.544,158.273 208.828,156.999 210.448 M129.657 210.954 C 127.567 213.612,129.062 216.684,132.453 216.701 C 134.482 216.711,135.696 215.335,135.696 213.027 C 135.696 209.714,131.709 208.346,129.657 210.954 M143.623 210.546 C 142.490 211.798,142.540 214.811,143.711 215.871 C 146.110 218.042,149.873 216.335,149.873 213.077 C 149.873 209.934,145.704 208.246,143.623 210.546 M241.295 210.746 C 238.750 214.379,242.582 218.343,246.574 216.207 C 248.411 215.224,248.287 211.281,246.380 210.008 C 245.118 209.165,242.094 209.604,241.295 210.746 M255.696 210.633 C 254.485 211.844,254.386 214.033,255.472 215.584 C 256.486 217.032,259.698 217.149,260.934 215.783 C 262.960 213.544,261.237 209.620,258.228 209.620 C 257.384 209.620,256.259 210.070,255.696 210.633 M150.380 217.215 C 147.816 219.779,149.698 224.304,153.329 224.304 C 155.872 224.304,157.468 222.680,157.468 220.094 C 157.468 217.562,156.053 216.203,153.418 216.203 C 152.068 216.203,151.055 216.540,150.380 217.215 M164.382 217.128 C 162.164 219.579,164.036 223.797,167.342 223.797 C 168.439 223.797,169.500 223.412,170.127 222.785 C 172.601 220.310,170.754 216.203,167.167 216.203 C 165.924 216.203,164.917 216.537,164.382 217.128 M233.961 217.537 C 231.688 220.426,233.553 224.304,237.215 224.304 C 240.878 224.304,242.742 220.426,240.470 217.537 C 238.963 215.621,235.468 215.621,233.961 217.537 M136.998 217.505 C 135.889 218.613,135.968 221.909,137.128 222.959 C 140.396 225.916,145.053 221.475,142.503 217.834 C 141.545 216.466,138.235 216.268,136.998 217.505 M248.350 217.409 C 247.085 218.334,247.074 221.370,248.332 222.760 C 250.393 225.038,254.684 223.421,254.684 220.366 C 254.684 217.172,251.016 215.459,248.350 217.409 M123.370 218.141 C 120.739 221.048,124.825 225.048,127.595 222.278 C 128.152 221.722,128.608 220.732,128.608 220.078 C 128.608 217.563,125.076 216.256,123.370 218.141 M262.886 217.823 C 261.876 218.833,262.126 222.162,263.258 222.767 C 265.684 224.065,267.848 222.792,267.848 220.065 C 267.848 218.014,267.068 217.215,265.063 217.215 C 264.200 217.215,263.220 217.489,262.886 217.823 M228.370 223.420 C 225.763 224.765,225.139 228.105,227.125 230.090 C 230.818 233.783,236.765 228.492,233.291 224.604 C 231.879 223.024,230.010 222.574,228.370 223.420 M157.244 224.416 C 155.190 227.349,157.134 231.392,160.598 231.392 C 163.925 231.392,165.895 226.654,163.544 224.304 C 162.065 222.825,158.312 222.892,157.244 224.416 M129.910 224.593 C 128.972 225.531,128.849 228.900,129.722 229.772 C 130.667 230.718,133.895 230.518,134.858 229.454 C 137.673 226.343,132.874 221.629,129.910 224.593 M143.797 224.810 C 141.614 226.994,143.123 230.380,146.279 230.380 C 149.477 230.380,150.929 227.556,149.085 224.923 C 148.055 223.452,145.216 223.391,143.797 224.810 M241.768 224.498 C 240.635 225.326,240.463 228.348,241.480 229.573 C 242.352 230.624,245.753 230.631,246.799 229.584 C 249.770 226.613,245.197 221.990,241.768 224.498 M255.472 224.923 C 253.672 227.492,255.131 230.380,258.228 230.380 C 259.687 230.380,260.399 230.089,260.984 229.254 C 262.783 226.686,261.325 223.797,258.228 223.797 C 256.768 223.797,256.056 224.088,255.472 224.923 M150.416 231.714 C 149.024 233.484,149.091 235.213,150.610 236.732 C 153.210 239.332,156.962 237.720,156.962 234.003 C 156.962 230.386,152.648 228.877,150.416 231.714 M164.594 231.714 C 163.202 233.484,163.268 235.213,164.787 236.732 C 167.178 239.123,171.139 237.507,171.139 234.140 C 171.139 230.548,166.782 228.932,164.594 231.714 M220.250 231.764 C 218.943 233.426,219.189 235.737,220.817 237.089 C 223.172 239.044,226.835 237.250,226.835 234.140 C 226.835 230.508,222.476 228.935,220.250 231.764 M234.430 231.392 C 233.020 232.803,233.098 235.472,234.590 236.874 C 237.078 239.211,241.013 237.462,241.013 234.018 C 241.013 231.856,239.471 230.380,237.215 230.380 C 236.118 230.380,235.057 230.766,234.430 231.392 M136.991 232.011 C 135.305 234.418,136.802 237.468,139.668 237.468 C 142.374 237.468,143.921 233.613,141.989 231.682 C 140.779 230.472,137.938 230.659,136.991 232.011 M248.433 231.812 C 246.527 233.919,248.176 237.468,251.061 237.468 C 253.767 237.468,255.313 233.613,253.382 231.682 C 252.293 230.593,249.469 230.668,248.433 231.812 M122.924 232.705 C 121.714 235.361,125.172 238.257,127.372 236.430 C 128.256 235.697,128.335 232.841,127.494 232.000 C 126.328 230.834,123.584 231.258,122.924 232.705 M262.886 232.000 C 261.897 232.989,262.135 235.837,263.258 236.438 C 265.584 237.683,267.848 236.475,267.848 233.989 C 267.848 232.185,266.998 231.392,265.063 231.392 C 264.200 231.392,263.220 231.666,262.886 232.000 M158.296 238.518 C 155.778 240.499,157.183 244.567,160.380 244.549 C 163.711 244.531,165.155 241.058,162.808 238.711 C 161.290 237.193,160.048 237.140,158.296 238.518 M227.961 238.257 C 226.513 239.271,226.396 242.483,227.761 243.719 C 228.990 244.831,231.536 244.785,232.580 243.631 C 234.594 241.406,233.026 237.468,230.127 237.468 C 229.554 237.468,228.580 237.823,227.961 238.257 M144.087 238.770 C 142.043 240.815,143.417 244.051,146.329 244.051 C 148.629 244.051,149.367 243.313,149.367 241.013 C 149.367 238.100,146.131 236.726,144.087 238.770 M241.835 238.744 C 240.848 239.730,240.763 241.996,241.666 243.231 C 242.726 244.681,246.092 244.167,247.073 242.405 C 248.731 239.427,244.270 236.309,241.835 238.744 M130.228 239.089 C 129.132 240.184,129.509 242.435,130.944 243.376 C 133.444 245.014,136.150 242.233,134.698 239.520 C 134.066 238.340,131.248 238.068,130.228 239.089 M256.329 238.804 C 255.078 239.333,255.558 242.997,256.962 243.636 C 259.250 244.679,260.850 243.488,260.662 240.884 C 260.504 238.705,258.659 237.820,256.329 238.804 M151.519 245.328 C 150.000 246.402,149.896 249.832,151.359 250.615 C 153.977 252.016,156.456 250.683,156.456 247.874 C 156.456 245.232,153.679 243.800,151.519 245.328 M220.084 244.895 C 219.338 245.641,219.725 251.023,220.548 251.338 C 221.927 251.867,225.592 251.674,226.228 251.038 C 226.864 250.402,227.057 246.737,226.528 245.358 C 226.212 244.535,220.831 244.148,220.084 244.895 M235.949 244.898 C 233.878 245.667,233.232 248.837,234.850 250.301 C 236.941 252.193,240.506 250.763,240.506 248.032 C 240.506 245.743,238.111 244.095,235.949 244.898 M137.722 246.076 C 135.812 247.986,136.951 250.633,139.682 250.633 C 142.360 250.633,143.357 247.395,141.153 245.851 C 139.666 244.810,138.940 244.857,137.722 246.076 M165.165 245.671 C 164.155 246.681,164.405 250.010,165.536 250.615 C 168.010 251.939,170.633 250.476,170.633 247.772 C 170.633 245.487,166.815 244.020,165.165 245.671 M249.114 246.076 C 247.208 247.982,248.190 250.633,250.803 250.633 C 252.818 250.633,253.671 249.861,253.671 248.036 C 253.671 245.305,251.024 244.166,249.114 246.076 M123.668 246.154 C 122.648 247.175,122.899 249.510,124.098 250.152 C 126.486 251.430,129.143 248.865,127.745 246.630 C 127.112 245.618,124.509 245.314,123.668 246.154 M262.716 246.784 C 261.552 249.339,265.058 252.015,266.808 249.906 C 267.140 249.507,267.338 248.425,267.250 247.501 C 267.029 245.197,263.681 244.667,262.716 246.784 M158.594 252.434 C 157.088 253.489,156.993 256.925,158.448 257.704 C 161.021 259.081,163.544 257.643,163.544 254.799 C 163.544 253.168,162.078 251.646,160.506 251.646 C 160.073 251.646,159.213 252.000,158.594 252.434 M227.848 252.658 C 225.749 254.758,227.168 258.228,230.127 258.228 C 233.085 258.228,234.504 254.758,232.405 252.658 C 231.848 252.101,230.823 251.646,230.127 251.646 C 229.430 251.646,228.405 252.101,227.848 252.658 M241.044 252.601 C 239.249 255.954,240.606 258.299,244.242 258.124 L 247.342 257.975 247.342 254.937 L 247.342 251.899 244.461 251.748 C 242.018 251.620,241.499 251.749,241.044 252.601 M144.129 253.078 C 142.291 255.109,143.482 257.722,146.246 257.722 C 148.506 257.722,149.367 257.005,149.367 255.125 C 149.367 252.407,145.946 251.070,144.129 253.078 M130.251 253.243 C 128.711 254.782,130.108 257.722,132.379 257.722 C 135.383 257.722,135.645 253.014,132.656 252.762 C 131.680 252.679,130.598 252.896,130.251 253.243 M256.014 253.433 C 255.071 255.889,256.035 257.722,258.267 257.722 C 261.673 257.722,261.817 253.007,258.419 252.759 C 256.858 252.645,256.251 252.815,256.014 253.433 M137.749 259.967 C 137.417 260.366,137.219 261.449,137.307 262.372 C 137.600 265.421,142.278 264.800,142.278 261.712 C 142.278 259.641,139.051 258.398,137.749 259.967 M151.420 259.967 C 150.021 261.653,150.972 264.037,153.113 264.212 C 155.282 264.390,155.929 263.826,155.942 261.747 C 155.956 259.427,152.875 258.214,151.420 259.967 M165.353 260.036 C 163.663 261.726,164.814 264.304,167.258 264.304 C 169.254 264.304,170.127 263.533,170.127 261.772 C 170.127 259.348,167.130 258.258,165.353 260.036 M221.461 259.628 C 220.535 260.238,220.158 262.167,220.749 263.272 C 221.451 264.583,225.034 264.756,225.515 263.503 C 226.684 260.457,224.039 257.929,221.461 259.628 M235.038 259.848 C 234.178 260.708,234.284 263.073,235.226 264.014 C 237.016 265.805,240.000 264.444,240.000 261.837 C 240.000 260.033,239.150 259.241,237.215 259.241 C 236.352 259.241,235.372 259.514,235.038 259.848 M249.141 259.967 C 248.810 260.366,248.611 261.449,248.700 262.372 C 248.978 265.277,253.671 264.925,253.671 261.999 C 253.671 259.676,250.547 258.274,249.141 259.967 M123.571 260.474 C 122.053 262.303,124.189 264.810,126.610 264.042 C 128.467 263.452,127.792 260.044,125.780 259.848 C 124.833 259.755,123.963 260.002,123.571 260.474 M263.146 260.060 C 262.567 260.639,262.729 263.033,263.392 263.696 C 265.028 265.332,267.531 263.858,267.252 261.423 C 267.089 260.002,264.172 259.034,263.146 260.060 M129.722 266.430 C 128.776 267.376,128.976 270.604,130.040 271.567 C 133.079 274.317,137.164 270.524,135.172 266.802 C 134.563 265.665,130.748 265.404,129.722 266.430 M144.405 266.937 C 144.071 267.271,143.797 268.154,143.797 268.900 C 143.797 271.977,148.477 272.505,148.769 269.461 C 149.029 266.746,146.221 265.121,144.405 266.937 M158.861 266.876 C 157.843 267.469,157.672 269.874,158.582 270.785 C 160.100 272.303,163.038 271.159,163.038 269.049 C 163.038 266.856,160.849 265.718,158.861 266.876 M228.382 267.056 C 226.934 268.800,227.934 271.139,230.127 271.139 C 232.050 271.139,232.160 271.055,232.313 269.461 C 232.504 267.473,231.705 266.329,230.127 266.329 C 229.499 266.329,228.713 266.656,228.382 267.056 M242.043 267.308 C 240.730 269.762,241.907 271.564,244.650 271.300 C 247.756 271.002,247.150 266.329,244.006 266.329 C 243.102 266.329,242.373 266.693,242.043 267.308 M256.192 267.867 C 255.074 269.956,256.875 271.890,259.239 271.140 C 260.489 270.743,261.095 268.610,260.248 267.588 C 259.316 266.465,256.852 266.635,256.192 267.867 M75.651 318.220 C 63.043 320.963,55.118 332.710,57.133 345.670 C 61.708 375.097,106.048 371.557,105.966 341.772 C 105.922 325.398,92.080 314.645,75.651 318.220 M125.153 317.976 C 107.484 321.725,105.593 343.038,122.554 347.257 C 127.288 348.435,128.608 349.121,128.608 350.408 C 128.608 353.201,122.652 352.789,117.348 349.629 C 115.703 348.650,114.196 347.848,113.997 347.848 C 112.905 347.848,108.395 360.678,109.256 361.337 C 113.726 364.761,125.608 366.916,132.254 365.507 C 149.752 361.798,152.203 339.983,135.578 335.924 C 128.842 334.279,126.804 332.859,128.905 331.276 C 130.412 330.140,134.722 330.778,137.988 332.622 L 140.736 334.173 141.467 332.758 C 142.538 330.688,145.823 322.667,145.823 322.123 C 145.823 321.580,140.914 319.327,137.975 318.521 C 135.118 317.737,127.753 317.425,125.153 317.976 M6.819 319.101 C 6.683 319.456,6.631 329.886,6.703 342.278 L 6.835 364.810 15.190 364.810 L 23.544 364.810 23.684 356.835 L 23.823 348.861 28.620 348.861 L 33.418 348.861 33.418 356.962 L 33.418 365.063 41.772 365.063 L 50.127 365.063 50.127 341.772 L 50.127 318.481 41.772 318.481 L 33.418 318.481 33.418 326.076 L 33.418 333.671 28.621 333.671 L 23.825 333.671 23.684 326.203 L 23.544 318.734 15.305 318.595 C 8.992 318.488,7.009 318.607,6.819 319.101 M151.899 341.772 L 151.899 365.063 160.253 365.063 L 168.608 365.063 168.608 358.298 L 168.608 351.534 174.304 351.253 C 187.269 350.613,191.746 346.384,191.579 334.937 C 191.385 321.650,185.914 318.512,162.911 318.491 L 151.899 318.481 151.899 341.772 M197.468 341.772 L 197.468 365.088 205.949 364.949 L 214.430 364.810 214.430 341.772 L 214.430 318.734 205.949 318.595 L 197.468 318.457 197.468 341.772 M223.043 319.045 C 222.895 319.431,222.833 329.886,222.906 342.278 L 223.038 364.810 233.982 364.705 C 241.491 364.632,246.095 364.355,248.653 363.822 C 272.726 358.803,273.328 325.308,249.446 319.718 C 244.404 318.538,223.443 318.003,223.043 319.045 M274.543 341.341 C 270.051 353.926,266.493 364.412,266.635 364.643 C 266.778 364.874,270.747 365.063,275.455 365.063 C 285.064 365.063,284.704 365.208,285.365 361.076 L 285.699 358.987 291.708 358.987 L 297.717 358.987 298.562 362.025 L 299.407 365.063 308.154 365.063 C 312.966 365.063,317.007 364.892,317.135 364.684 C 317.263 364.475,313.788 354.051,309.414 341.519 L 301.461 318.734 292.086 318.597 L 282.711 318.459 274.543 341.341 M313.643 319.132 C 313.502 319.497,313.452 322.975,313.529 326.860 L 313.671 333.924 318.094 334.070 L 322.517 334.216 322.651 349.513 L 322.785 364.810 331.139 364.810 L 339.494 364.810 339.628 349.513 L 339.762 334.216 344.185 334.070 L 348.608 333.924 348.608 326.329 L 348.608 318.734 331.252 318.601 C 317.308 318.494,313.847 318.598,313.643 319.132 M361.012 319.620 C 359.397 323.413,345.009 364.587,345.224 364.802 C 345.368 364.946,349.426 365.063,354.242 365.063 L 362.999 365.063 363.555 362.911 C 363.861 361.728,364.227 360.361,364.368 359.873 C 364.594 359.095,365.343 358.987,370.563 358.987 L 376.501 358.987 377.238 361.899 L 377.975 364.810 386.962 364.948 C 393.551 365.050,395.949 364.929,395.949 364.496 C 395.949 364.171,392.374 353.685,388.003 341.193 L 380.057 318.481 370.777 318.481 C 361.635 318.481,361.490 318.498,361.012 319.620 M173.100 332.205 C 177.557 333.759,175.996 338.734,171.051 338.734 L 168.608 338.734 168.608 335.190 L 168.608 331.646 170.051 331.646 C 170.845 331.646,172.217 331.897,173.100 332.205 M85.570 334.636 C 88.755 336.933,89.876 342.802,87.806 346.338 C 82.998 354.549,71.843 348.527,74.453 339.130 C 75.883 333.980,81.507 331.707,85.570 334.636 M246.233 334.557 C 253.118 338.577,250.199 349.050,241.877 350.191 L 239.494 350.517 239.494 341.770 L 239.494 333.024 242.074 333.329 C 243.493 333.497,245.365 334.050,246.233 334.557 M293.456 342.370 C 294.131 345.066,294.684 347.402,294.684 347.560 C 294.684 347.719,293.351 347.848,291.722 347.848 L 288.760 347.848 290.329 341.452 C 291.193 337.933,291.973 335.598,292.063 336.262 C 292.154 336.925,292.780 339.674,293.456 342.370 M370.721 347.748 C 367.217 347.945,367.338 348.288,368.837 342.374 C 369.546 339.575,370.146 336.757,370.170 336.111 C 370.194 335.465,370.943 337.785,371.835 341.266 L 373.456 347.595 370.721 347.748 "
          stroke="none" fill="#01579B" fill-rule="evenodd"></path>
  </g>
</svg>
